<svg xmlns="http://www.w3.org/2000/svg" viewBox="0 0 1000 1000"><title>Malatium</title><path d="M724.73,398.57A204.87,204.87,0,0,1,736,465.64c0,114.08-93.12,206.56-208,206.56S320,579.72,320,465.64s93.12-206.56,208-206.56a208.85,208.85,0,0,1,72,12.73,244,244,0,0,0-100-21.36c-134.76,0-244,108.74-244,242.87S365.24,736.21,500,736.21,744,627.47,744,493.33A241.13,241.13,0,0,0,724.73,398.57Z"/><circle cx="501.75" cy="475.96" r="40.25"/><path d="M557,361.71a398.11,398.11,0,0,1,63,62l-.16-20.1A24,24,0,0,1,627,386.33L818.5,196.71,593.12,357.2a22.2,22.2,0,0,1-12.51,4.11Z"/><path d="M770,780.68,676.26,590.44A25.13,25.13,0,0,1,674,575.1l3-17.39c-19.77,18.94-40.81,35.5-64,48l17.75,4.1a27.25,27.25,0,0,1,15.47,9.94Z"/><path d="M351.5,896.71l71.81-274.54a14.61,14.61,0,0,0-2.09-12l-13.72-20c28,17,54.7,29.5,79.5,35.5l-16.25,7.65a26.77,26.77,0,0,0-13.24,13.76Z"/><path d="M51.5,483.21l284.91,3.92a18,18,0,0,0,11-3.56L368,468.21c-4.92,24.24-4.42,49.49,0,75.5l-19.89-14.32a25.76,25.76,0,0,0-11.34-4.59Z"/><path d="M335,145.46l109.48,163a12.62,12.62,0,0,1,2.08,8.25L444,343.21c18.09-18.75,41-34.53,67.75-48l-28.68-5.1a16.31,16.31,0,0,1-8.71-4.56Z"/></svg>